<svg xmlns="http://www.w3.org/2000/svg" viewBox="0 0 1712 1712" width="42.3332mm" height="42.3332mm" shape-rendering="geometricPrecision" text-rendering="geometricPrecision" image-rendering="optimizeQuality" fill-rule="evenodd" clip-rule="evenodd"><defs><clipPath id="clip"><path d="M0 0h1712v1712H0z"/></clipPath></defs><g clip-path="url(#clip)"><polygon fill="#fff" points="817,-35 1749,-35 1749,891 1282,427"/><polygon fill="#fff" points="-32,-48 884,856 -32,1760"/><polygon fill="#fff" points="-67,1747 857,832 1780,1747"/><polygon fill="#fff" points="1749,1760 1272,1291 1749,823"/><polygon fill="#fff" points="1343,401 859,881 375,401"/><polygon fill="#3FC8F4" points="900,0 1715,0 1715,808 1306,402"/><polygon fill="#fff" points="1298,393 1764,857 1300,1319 834,855"/><polygon fill="#0095DA" points="3,34 835,856 3,1678 3,856"/><polygon fill="#fff" points="-68,-34 861,-34 1343,438 415,438"/><polygon fill="#3FC8F4" points="16,1712 857,880 1697,1712 857,1712"/><polygon fill="#00AEEF" points="1715,1678 1321,1291 1715,904 1715,1291"/><polygon fill="#9CDCFA" points="1260,435 859,832 458,435 859,435"/><polygon fill="#EE1551" points="1298,442 1715,857 1300,1271 883,855"/><polygon fill="#00AEEF" points="16,0 847,0 1260,404 429,404"/></g></svg>